<?xml version="1.0" encoding="utf-8"?>
<svg version="1.0" id="Ebene_1" xmlns="http://www.w3.org/2000/svg" xmlns:xlink="http://www.w3.org/1999/xlink" x="0px" y="0px"
	 viewBox="0 0 1080 1350" style="enable-background:new 0 0 1080 1350;" xml:space="preserve">
<style type="text/css">
	.st0{fill:#FF2828;}
</style>
<g transform="matrix(1, 0, 0, 1, 80, 277)">
	<g>
		<g>
			<path class="st0" d="M309.98,186.41c-0.57-0.31-1.8-0.66-3.02-0.96c-1.76-0.42-3.01-1.98-3.06-3.8l-0.64-23.45
				c-0.04-0.97,1.24-3.53,1.45-4.13c1.97-5.65,15.14,24.02,15.06,31.16v0.01l0.33,1.31v0.01c0.15,0.35,0.28,0.73,0.37,1.12
				c0.15,0.61,0.42,1.1,0.71,1.66c0.28,0.55,0.94,2.21,0.78,1.64c-0.09-0.31,0.04,0.27,0.08,0.41c0.2,0.53,0.35,1.06,0.67,1.57
				c0.27,0.45,0.51,0.9,0.68,1.33c10.52,26.58,44.89,66.45,64.6,78.4l25.1,15.21c1.62,0.98,2.34,2.96,1.71,4.75
				c-11.34,32.61-28.66,46.56-54.12,67.88c-21.75,18.21-42.79,35.2-65.67,51.94c-18.59,13.6-35.31,27.89-52.85,42.58
				c-8.05,6.74-30.38,27.57-21.78,37.54c1.04,1.2,3.66,2.52,6,2.91c1.62,0.27,3.22-0.48,4.07-1.88
				c30.14-49.63,58.04-49.39,99.76-88.43l34.18-31.98c0.77-0.72,1.5-1.49,2.22-2.27c2.68-2.88,7.47-0.6,6.92,3.29
				c-5.11,37.21-8.21,103.17-5.01,131.45l5.01,44.36l3.8,43.06c0.38,4.35,6.5,5.07,7.83,0.91c0.84-2.62,0.88-5.7,0.64-8.61
				c-2.76-31.65-2.56-62.18-3.53-94.03c-0.93-30.41-1.8-59.39,1.93-89.73c0.15-1.3,0.19-2.62,0.21-3.94
				c0.04-4.27,5.84-5.52,7.66-1.66c4.36,9.27,8.1,18.17,13.91,26.4c11.63,16.48,34.4,32.84,55.03,37.17
				c1.76,0.37,3.04,1.89,3.14,3.68l1.09,21.35c0.06,1.11-0.34,2.19-1.11,2.98c-10.85,11.2-13.12,27.77-4.64,39.89
				c4.88,6.97,12.87,9.73,20.3,8.05c7.72-1.76,11.56-8.4,13.45-16.45c3.68-15.73-2.5-30.38-17.05-37.93
				c-1.1-0.57-1.86-1.6-2.09-2.82c-1-5.6-1.7-12.13-1.19-17.42c0.14-1.38,0.98-2.61,2.23-3.23c26.92-13.38,52.84-52.13,66.87-78.62
				c0.86-1.6,2.69-2.47,4.46-2.03c3.89,0.96,7.88,4.09,8.75,7.81c4.34,18.44,7.14,36.55,7.7,55.76c1.1,37.48,0.91,74.29,0.02,111.8
				c-0.41,17.57-2.41,33.81-4.61,51.1c-2.37,18.46-1.31,36.83-1.27,55.52l0.07,36.65l-1.19,60.39c-0.02,1.19,0.01,4.38,0.97,4.39
				l4.08,0.06c2.12,0.02-0.81-12.89,0.34-23.88l5.9-56.32c5.06-48.21,5.7-95.76,7.36-144.21l1.32-58.08
				c0.68-30.17,2.48-58.08-2.47-89.02c-0.54-3.46,3.3-5.9,6.21-3.96l64.8,43.26c18.51,12.35,35.21,25.3,51.09,40.95
				c0.09,0.09,0.19,0.18,0.29,0.26c19.19,15.4,37.41,31.23,51.08,52.03c0.32,0.48,0.53,1.03,0.61,1.6l5.62,35.83
				c0.01,0.08,0.04,0.15,0.05,0.22l1.71,7.95c0.31,1.38-0.15,2.83-1.19,3.8c-9.64,8.97-13.84,20.26-15.9,32.91
				c-3.8,23.26-3.4,45.14,0.34,68.49c4.49,28.16,13.64,54.51,33.55,75.91c13.21,14.19,32.32,25.94,52.46,27.53
				c12.59,0.99,27.71-8.39,36.35-16.55c10.52-9.97,16.93-22.06,23.76-34.2c7.63-13.55,10.46-28.42,9.06-44l-3.88-43.25
				c-2.18-24.41-10.55-47.73-26.11-66.44c-2.42-2.91-7.2-1.2-7.13,2.58c0.01,0.71,0.12,1.38,0.32,1.98l8,23.49
				c10.57,31.01,16.11,53.37,19.01,86.48c1.79,20.63-7.54,37.87-19.09,55.25c-8.47,12.74-24.09,24.59-40.24,23.95
				c-15.49-0.61-30.41-9.23-41.82-19.04c-12.52-10.76-18.56-25.81-25.6-40.38c-5.31-10.97-7.31-22.73-9.21-34.95
				c-3.43-22.03-4.72-43.55-1.14-65.56c1.26-7.73,5.97-27.84,13.71-29.3c1.25-0.24,4.42,1.05,5.2,2.18l11.22,16.47
				c0.94,1.39,0.93,3.23-0.05,4.6c-7.63,10.58-9.86,21.02-10.25,33.46c-0.9,28.5,3.17,56.53,17.75,81.12
				c7.64,12.88,22.9,21.13,37.63,18.16c12.07-2.44,21.13-11.57,27.45-21.32c14.24-21.99,17.6-47.48,12.68-72.96
				c-2.54-13.12-6.94-36.62-19.51-44.01c-1.72-1.01-2.41-3.17-1.63-5.01c7.49-17.62,14.69-43.14,9.43-60.29l-21.88-71.48
				c-0.64-2.09,0.5-4.31,2.57-4.99c12.69-4.19,26.43-12.62,22.3-25.02c-1.06-3.16-5.76-6.46-9.39-8.38
				c-4.91-2.57-10.78-3.21-15.29-1.29c-4.05,1.71-2.68,7.8,1.72,7.69l7.75-0.17c2.17-0.05,5.65,3,6.5,4.81
				c3.67,7.93-10.32,12.28-18.46,14.79c-1.39,0.44-2.91,0.08-3.96-0.93c-0.91-0.87-1.79-1.91-2.65-2.97c-2.89-3.56-8.54-0.27-6.87,4
				l0.74,1.91c0.85,2.16-0.31,4.58-2.5,5.29c-7.16,2.31-14.62,4.45-21.91,6.02l-28.17,6.05c-2.6,0.57-5-1.49-4.86-4.13
				c0.71-13.33,5.21-30.64,2.63-37.09c-0.45-1.12-4.02,0.92-5.16,1.73l-15.23,10.95c-9.46,6.81-14.19,23.03-9.13,33.29
				c2.6,4.9,9.36,4.94,14.63,5.36c1.98,0.17,3.56,1.75,3.7,3.73c0.25,3.59,0.27,7.4-0.05,11.28c-0.28,3.42-4.42,4.95-6.84,2.54
				l-28.81-28.66c-15.76-15.69-31.88-28.56-50.9-40.24c-27.73-17.01-54.41-34.12-83.71-48.49c-12.84-6.29-26.66-9.47-38.4-17.72
				c-16.13-11.34-24.4-30.14-27.15-49.1l-1.56-10.72c-0.26-1.75,0.66-3.44,2.24-4.21c26.13-12.52,61.68-28.38,79.38-49.24
				l27.88-32.82c8.64-10.18,18.42-40.38,26.01-45.84c0.53-0.38,2.32,2.04,2.28,2.68l-1.32,19.69c-0.48,7.09-1.18,9.4-7.49,12.69
				c-4.06,2.1-7.81,7.7-7.93,11.93c-0.26,8.79,8.13,11.73,11.7,17.91c1.64,2.87-10.11,11.7-7.77,19.26
				c1.73,5.58,9.59,10.57,14.92,9.87c8.16-1.06,13.27-8.19,14.82-15.48c0.27-1.27-0.09-2.61-0.98-3.56l-4.41-4.78
				c-1.25-1.36-1.42-3.4-0.4-4.94l8.55-12.92c2.64-3.99-0.68-11.14-4.25-14.04c-5.62-4.57-6.57-8.75-6.96-15.61l-1.06-18.62
				c-0.11-1.96,1.2-3.7,3.1-4.15l3.93-0.91c29.67-6.91,29.17-49.11,23.5-58.81c-4.24-7.22-13.66-9.9-21.73-8.26
				c-9.92,2.02-18.89,7.79-24.48,16.43c-6.17,9.53,11.22,38.06-28.4,89.24c-18.33,23.69-27.27,39.44-54.48,54.23
				c-17.79,9.66-36.11,17.59-55.94,23.12c-8.32,2.31-19.81,5.83-27.94,4.67l-46.53-6.63c-19.95-2.84-35.17-12.42-49.75-25.06
				c-25.1-21.77-40.42-49.48-51.32-81.21l-7.93-23.06c-0.2-0.6-0.27-1.26-0.17-1.9l6.45-34.32c1.7-9.59,0.27-12.14-0.08-12.91
				c-4.84-10.37-26.51-25.52-36.58-19.93c-12.06,6.68-14.44,19.21-14.78,31.45c-0.51,18.06,7.18,32.23,22.21,41.34
				c1.24,0.76,1.97,2.11,1.92,3.56c-0.22,8.38-2.67,31.16,0.81,32.25c0.07,0.01-0.91-1.77-1.29-1.86l-3-0.78
				c-4.31-1.12-8.47,1.92-8.87,6.19c-0.07,0.74-0.32,1.47-0.78,2.08c-2.65,3.5-7.23,9.24-4.46,12.17c3.98,4.22,5.77,6.82,4.4,12.58
				c-0.31,1.32,3.2,4.7,4.48,4.52c7.93-1.1,4.39-3.88,9.1-2.34c4.6,1.5,7.43,5.97,10.35,0.24c1.86-3.68,3.94-2.64,6.36-3.94
				c10.02-5.38,5.84-11.89,4.73-20.41c-0.34-2.68-1.9-5.04-4.15-6.54 M835.08,602.72c1.93-2.17,5.52-1.27,6.19,1.56
				c8.47,35.46,13.04,51.35,2.36,88.03c-2.68,9.24-23.11,34.64-36.21,27.31c-16.45-9.19-20.63-48.53-22.74-65.51
				c-1.52-12.2-8.15-43.93,1.01-51.86c3.67-3.16,13.83,13.7,31.75,12.19C825.29,613.76,829.68,608.78,835.08,602.72z M819.11,460.48
				c5.27,10.99,8.59,22.6,10.66,34.68c0.05,0.22,0.11,0.44,0.18,0.64c7.89,20.82,8.9,41.68,4.41,63.34
				c-1.42,6.89-7.77,49.34-20.5,45.78c-15.41-4.31-25.91-15.45-34.34-27.84c-8.03-12.36-15.47-25.17-16.99-40.25l-6-59.65
				c-0.18-1.77,0.96-3.4,2.67-3.85l55.72-14.81C816.6,458.08,818.35,458.91,819.11,460.48z M653.51,216.88
				c-1.5,1.25-5.93,2.43-7.2,0.97c-1.36-1.58-1.8-4.53-1.03-5.76c0.79-1.22,5.65-2.03,8.12-1.95
				C655.38,210.2,654.85,215.76,653.51,216.88z M649.8,121.42c0.55-5.37,4.42-10.09,8.91-12.85c4.35-2.69,10.09-2.94,14.33-0.67
				c4.22,2.25,6.85,8.68,5.3,14.17c-3.67,12.98-8.67,30.59-20.4,33.41c-2.87,0.68-10.33-2.05-10.25-5.06
				C647.99,140,648.77,131.31,649.8,121.42z M304.73,205.62c-0.19,1.5-1.26,2.74-2.73,3.09c-4.26,1.01-9.67,0.37-11.23-3.57
				c-2.05-5.19,5.76-12.82,11.61-10.38c0.67,0.28,1.25,0.76,1.6,1.39C305.15,198.22,305.16,202.16,304.73,205.62z M314.91,110.08
				c-0.5,7.62-4.94,32.39-11.5,34.03c-7.27,1.82-21.8-15.06-21.97-28.94c-0.11-8.67,3.1-24.66,13.24-26.79
				C305.23,86.16,315.52,100.68,314.91,110.08z M478.63,498.21c4.6,4.4,5.95,10.71,4.18,17.45c-0.96,3.6-4.22,7.22-7.09,7.81
				c-2.41,0.5-7.13-1.99-8.69-4.48c-3.82-6.06-2.75-14.4,1.31-19.98C469.93,496.8,476.77,496.42,478.63,498.21z M535.34,372.31
				l-14.91,25.84c-12.34,21.4-28.68,42.74-53.2,50.85c-12.5,4.13-27.44-6.5-35.8-14.59c-14.31-13.83-23.09-29.54-31.76-46.86
				c-5.97-11.93-17.07-30.44-7.6-39.73c12.81-12.58,30.2-37.67,36.67-55.95c0.54-1.53,2.03-2.51,3.65-2.38
				c2.55,0.21,5.27,0.98,7.81,1.59l23.97,5.91c17.01,4.19,27.37-5.07,31.58-2.19c3.52,2.41,7.79,32.89,21.45,53.36
				c1.77,2.65,3.47,4.65,4.46,6.9c0.04,0.08,0.07,0.17,0.11,0.25c0.88,2.38-1.06,4.85-3.6,4.74c-4.05-0.15-12.08,2.14-11.56,4.78
				c-0.61,5.53,2.75,10.11,7.47,12.5c5.47,2.77,12.17,0.6,15.08-4.81c1.4-2.63,2.17-4.47,5.65-4.77c0.87-0.07,1.09,3.66,0.55,4.57
				V372.31z M742.24,464.82c-1.27,0.01-2.64-0.19-3.82-0.55c-1.42-0.44-2.42-1.73-2.47-3.22c-0.2-6.06,1.29-12.27,4.97-16.99
				c2.18-2.81,6.69-1.13,6.49,2.42c-0.31,5.24-0.88,10.44-1.69,15.38C745.44,463.56,743.96,464.81,742.24,464.82z"/>
			<path class="st0" d="M485.77-76.83l-35.12,1.25c-9.21,0.33-18.46,3.54-27.11,6.81c-16.92,6.38-32.18,16.75-45.36,29.01
				c-28.82,26.8-50.57,70.22-65.39,106.56c-0.77,1.89-3.13,4.85-4.72,5.43c-1.88,0.67-5.98-1.24-7.93-3.26l13.96-34.13
				c5.3-12.93,9.61-25.97,17.26-37.63c22.61-34.47,40.99-38.99,64.22-68.84l-21.29-19.69c-26.83-24.81,1.68-56.01,21.58-73.4
				c20.86-18.21,42.85-26.41,70.66-26.87c18.75-0.31,35.79,1.79,53.22,8.81c11.2,4.51,22.97,8.14,32.06,16.68
				c7.94,7.43,14.62,16.82,18.47,27.13c12.98,34.78-23.78,54.81-12.08,61.84c19.41,11.67,37.87,23.33,54.95,37.79
				c17.42,14.75,28.47,32.7,36.51,53.84c8.8,23.12,19.54,50,19.96,82.72c-2.76,3.62-13.02-7.01-14.3-10.1
				c-2.96-14.13-3.09-28.32-8-41.55c-14.68-39.56-27.7-62.98-58.75-91.09c-9.64-8.72-20.82-13.57-31.64-19.83
				C534.88-78.12,511.8-77.75,485.77-76.83z M435.03-87.34c23.54-2.97,46.63-4.6,70.29-4.33c9.58,0.12,18.89,2.84,29.04,3.89
				c25.84-15.34,26.19-58.71,5.7-71.34c-19.61-12.06-43.78-21.74-67.43-19.29c-14.85,1.55-29,7.93-42.67,12.89
				c-20.34,7.4-38.01,20.06-49.5,37.93c-3.95,6.13-7,15.27-3.31,21.68c6.91,12.08,18.79,22,31.34,26.51
				C417.47-81.89,426.22-86.22,435.03-87.34z"/>
			<path class="st0" d="M788.74,195.34c-2.17-4.79-11.47-1.85-15.64,0.17c-4.68,2.27-7.55,7.83-7.53,14.19l14.88,3.36l3.13,23.51
				c1.64,12.33,0.29,24.02-9.94,32.7c-2.23,1.89-8.33,2.55-11.38,1.12c-2.48-1.16-4.64-5.63-5.13-9.14l-3.37-23.59
				c-0.44-3.01-3.88-7.97-6.46-10.23c-17.29,8.08,2.45,49.49,4.06,79.35c1.25,23.13-0.39,46.35-1.56,69.38l12.53,14.05
				c2.71-3.54,6.56-11.45,11.15-12.74c10.52-2.95,18.96,8.33,19.58,17.58c0.65,9.72-7.6,19.51-18.43,18.92
				c-5.86-0.32-9.07-7.73-12.48-12.93c-3.99,5.37-7.26,11.51-11.84,15.18c-4.95,3.99-13.43,2.28-18.11-1.14
				c-4.29-3.13-6.91-10.07-6.81-16.21c0.21-10.97,4.93-19.23,15.86-22.59c3.78-39.08,4.88-73.18-4.79-110.82
				c-2.74-10.69-4.25-21.73-3.23-32.85c0.38-4.18,4.32-9.9,7.02-13.68c1.89-2.63,7.97-0.5,10.37,1.52
				c14.89,12.53,14.22,30.6,18.06,38.09c2.61,5.1,10.77-23.43,4.79-35.37l-18.49-7.2c-2.43-16.69,9.3-30.22,26.02-31.12
				c4.15-0.22,11.88-1.72,14.64,2.35c5.13,7.6,5.3,16.73,8.9,25.6c6-15.93,10.59-29.85,17.55-43.8c3.41-6.83,13.2-10.18,19.28-5.21
				c5.2,4.27,7.57,13.38,6.37,20.15l-4.57,25.48l15.11-7.87c1.78-0.93,6.22-1.33,7.85-0.22c8.38,5.71,0.99,27.92-3.69,36.82
				l8.33-3.27c3.04-1.2,8.01-0.68,10.48,1.38c10.13,8.48-5.98,27.19-12.17,35.44c-13.09,17.46-25.48,34.94-34.8,54.76
				c-7.23,15.38-13.7,42.6-18.6,48.59c-0.92,1.12-6.23-0.54-6.03-2.96c1.24-15.41,9.8-37.73,15.9-54.75
				c5.46-15.24,12.07-25.84,24.23-35.97c11.68-9.71,19.82-24.74,27.77-38.32c-11.4,0.38-19.17,8.1-25.1,16.49l-11.9,16.82
				c-0.81,1.14-4.87,2.23-5.46,1.19s-1.3-4.39-0.59-5.76l25.1-49.09c2.05-4.01,2.29-9.11,1.8-13.17
				c-12.39,3.9-18.77,12.63-24.02,22.92l-14.49,28.36c-0.5,0.96-3.08,3.1-4.02,2.58c-6.19-3.46,2.15-20.41,3.63-24.76l12.88-37.67
				c2.98-8.74,4.47-21.85,2.17-30.06c-0.44-1.55-5.45-2.29-6.31-1.2c-4.34,5.47-19.65,42.26-21.31,52.51l-4.21,26.15l-5.62,0.04
				c-1.5,0.01-2.94-3.08-3.21-4.75l-4.92-30.5C791.1,207.84,791.5,201.38,788.74,195.34z"/>
			<path class="st0" d="M668.73,699.9c-2.51-16.2-7.77-31.32-13.37-45.86l-12.71-33.07c-2.7-7.01-4.31-14.37-4.38-22.52
				c7.16-5.89,27.57,49.7,29.88,55.02c5.96-8.22,10.18-16.1,14.94-25.16c8.07-15.38,18.04-32.58,27.96-46.16
				c0.7-0.97,3.94-1.84,4.93-1.97c5.56-0.77-20.3,53.68-22.26,58.55l-16.62,41.42c1.51,21.05,20.29,101.22,12.72,116.13
				c-0.66,1.31-5.92,1.14-6.28-0.45c-1.85-8.48-3.35-21.98-4.79-31.3L668.73,699.9z"/>
			<path class="st0" d="M603.19,117.59c7.01,5.12,34.67,20.8,30.09,28.3c-1.32,2.17-17.35-4.71-20.76-6.29
				c-17.7-8.19-30.11-23.44-47.98-31.19c-33.48-14.52-43.89-43.92-59.34-75.31c-7.26-14.73-14-29.09-19.74-44.84
				c-0.53-1.46,1.59-4.92,2.97-5.38c1.68-0.55,6.5-0.39,7.44,1.59c11.8,24.67,39.76,81.27,59.79,98.51
				c14.94,12.84,31.63,22.98,47.52,34.6V117.59z"/>
			<path class="st0" d="M333.31,137.35c-0.41-0.46-0.87-1.25-0.45-1.7c25.56-27.27,20.29-24.09,26.4-29.33l48.17-41.27
				c23.25-19.93,48.25-43.46,58.69-71.89c0.72-1.96,5.49-3.06,7.04-2.38c1.57,0.67,3.94,6.62,3.59,8.72
				c-3.23,19.09-8.93,21.16-22.03,34.51c-15.42,15.69-34.64,38.82-51.39,53.25C381.7,105.88,339.85,144.88,333.31,137.35z"/>
			<path class="st0" d="M818.87,411.1c-4.84,2.49-10.37,3.43-14.05,0.21c-3.62-3.16-4.9-8.42-3.99-13.46
				c1.6-8.98,7.33-18,17.28-17.09c7.7,0.7,11.75,8.01,12,14.2C830.41,402.38,826.42,407.22,818.87,411.1z"/>
			<path class="st0" d="M414.71,150.32c-9.66,4.99-8.88,15.87-16.7,14.37c-9.7-1.86,6.61-7.56-6.24-15.52
				c-4.11-2.55,2.3-8.97,6.62-6.83c0.65,0.33,1.27,0.71,1.84,1.14c1.86,1.43,4.46,1.4,6.26-0.11c3.89-3.26,8.53-6.87,13.48-7.21
				c18.03-1.25,26.34,22.69,22.5,23.32c-1.96,0.32-3.92-0.57-5.01-2.23C432.55,149.9,423.34,145.86,414.71,150.32z"/>
			<path class="st0" d="M528.91,149.2c10.03,4.42,4.87,12.8,12.91,11.04c5.38-1.18-1.19-5.07,10.03-13.32
				c3.88-2.85-1.5-6.71-5.99-4.81c-0.67,0.28-1.31,0.63-1.91,1.01c-1.93,1.26-4.62,1.24-6.49-0.09c-4.05-2.89-8.86-6.1-14-6.39
				c-18.71-1.12-27.33,20.14-23.35,20.7c2.04,0.28,4.06-0.51,5.2-1.98C510.39,148.82,519.95,145.25,528.91,149.2z"/>
			<path class="st0" d="M509.14,228.25c-18.83,35.18-67.22,25.3-65.06,13.51c0.33-1.76,5.12-2.56,7.1-1.77
				c18.85,7.48,39.6-0.51,50.77-15.8c0.7-0.94,4.31-1.86,5.45-2.16C508.83,221.66,509.94,226.74,509.14,228.25z"/>
			<path class="st0" d="M483.13,191.58l5.96-2.91c1.18-0.58,4.46,3.04,3.79,4.4c-2.21,4.42-11.36,10.41-17.12,8.18
				c-7.37-2.85-13.24-10.61-11.87-18.63C474.88,181.2,470.27,197.88,483.13,191.58z"/>
			<path class="st0" d="M444.4,373.91c2.02,3.85-6.17,21.31-18.16,18.92c-4.38-0.86-12.17-4.75-10.85-11.77
				c1.01-5.34,7.51-12.6,13.11-14.45c5.26-1.75,13.41,2.58,15.9,7.31V373.91z"/>
			<path class="st0" d="M406.81,371.33c-5.89,2.96-10.24-2.44-11.35-7.63c-1.27-5.98-3.09-14.24,3.19-18.32
				c4.83-3.14,16.1-0.06,18.07,6.19C419.04,358.93,413.07,368.18,406.81,371.33z"/>
			<path class="st0" d="M495.43,390.25c-6.7,2.12-16.02-1.82-18.6-7.79c-2.6-5.99,3.6-14.31,9.69-15.32
				c7.17-1.19,14.89,3.86,16.23,11.25C503.41,382.02,499.73,388.89,495.43,390.25z"/>
			<path class="st0" d="M459.3,397.18c-3.6,0.27-8.15-4.49-8.99-7.22c-1.82-5.92,3.75-13.09,7.83-18.24
				c1.2-1.51,5.99-0.05,8.08,1.14c4.57,2.62,5.69,9.33,4.6,14.62C470.06,391.22,465.72,396.72,459.3,397.18z"/>
			<path class="st0" d="M286.12,778.3c-31.76,19.01-71.75,17.71-106.4,15.02c-13.65-1.05-27.83-1.04-40.04-7.44
				c-7.09-3.73-12.76-10.3-19.85-14.71c-0.77,9.79,0.77,24.23-10.22,26.8c-3.19,0.76-7.49-2.03-11.63-5.51
				c-2.9,7.8-7.34,11.07-15.47,11.27c-5.26,0.14-8.99-1.29-12.58-6.26l-8.67,4.71c-6.37,3.46-17.26,1.37-23.63-2.52
				c-4.62-2.83-4.86-12.14-3.55-16.85l6.13-22.1c-17.31,2.96-30.33-2.68-39.08-15.97c-16.88-25.65-10.65-58.19,12.78-78.05
				c4.95-4.21,9.44-9.2,14.06-14.31c-3.67-46.39,43.28-85.69,77.46-110.35l24.81-17.88c15.22-10.98,31.84-16.79,50.6-18.63
				c13.57-1.33,27.31-4.34,40.74-1.79l65.46,12.42c17.48,3.32,30.51,11.53,42.85,23.55c15.96,15.55,28.57,32.02,39.06,52.03
				L382.2,617l19.42,36.64c7.9,14.9,17.57,28.8,21.78,45.41c2.52,9.99-4.27,19.72-10.95,26.6c-8.39,8.64-18.47,12.16-30.41,17.53
				l4.18,22.82c2.47,13.5-0.74,28.14-12.13,35.49c-12.69,8.19-16.73-2.89-21.62-3.16c-3.19-0.18-3.44,11.35-13.07,12.82
				c-12.81,1.95-13.17-7.36-17.77-8.16c-3.29-0.57-4.27,7.85-12.22,8.91C299.28,813.25,286.53,790.33,286.12,778.3z M193.55,557.7
				l49.59,0.07c30.28,0.05,73.66,33.72,97.14,52.23c8.77,6.91,17.28,13.25,30.38,13.66c-15.83-34.12-24.49-55.35-51.71-80.04
				c-9.21-8.38-19.52-14.39-31.79-16.86l-57.61-11.63c-13.3-2.68-26.19-2.21-39.57-0.13c-9.8,1.53-20.07,1.46-29.26,4.79
				c-18.43,6.68-33.56,18.37-49.19,29.71c-27.86,20.21-73.46,57.4-75.05,94.51L72,623.2c23.58-13.8,27.48-35.97,70.28-53.3
				c16.35-6.62,32.43-12.23,51.26-12.2H193.55z M277.22,771c23.1-10.98,50.86-47.08,47.85-72.28
				c-2.42-20.23-8.77-38.33-16.3-57.45c3.4-3.63,9.5-5.37,14.26-5.01c2.93,12.39,5.9,22.8,9.78,34.61
				c4.7,14.31,7.1,29.59,17.83,41.15c7.1,7.66,17.93,16.15,28.28,19.06c13.73,3.88,25.98-9.04,29.71-20.82
				c2.5-7.93,2.93-15.34-0.28-22.78c-5.71-13.21-14.72-23.58-24.47-34.11c-4.55-4.92-9.12-11.03-15.17-13.89
				c-12.47-5.9-24.73-10.74-34.7-20.21c-21.9-20.77-47.6-35.19-75.81-46.06c-33.01-12.72-47.02-3.57-77.46,1.43
				c-78.46,12.91-70.83,40.22-118.82,65.32C41.8,650.51,24.23,663.2,11.02,681.6c-15.24,21.22-13.91,51.55,8.91,66.49
				c9.17,6,23.49,1.26,32.28-5.07c20.77-14.97,33.13-38.01,39.63-62.75c1.76-6.7,9.47-39.13,20.29-33.16
				c-1.83,8.43-4,16.34-6.59,24.14c-12.69,38,5.96,87.3,41.23,105.93c8.53,4.49,18.78,5.13,28.47,5.4l39.83,1.1
				c21.53,0.59,42.85-3.49,62.16-12.67H277.22z M353.35,735.63c-0.84-1.83-2.56-4.7-3.75-6.42l-12.65-18.27l-11.92,29.65
				L353.35,735.63z M96.61,746.45c1.06,0.7,4.99,1.23,5.01-0.01c0.12-5.96-7.09-18.83-8.74-32.25
				c-4.31,4.09-7.53,8.82-10.76,13.39l-9.34,13.22C86.26,745.76,85.61,739.2,96.61,746.45z M341.09,796.47l2.03-25.41
				c3.6-1.93,9.61,1,11.14,4.49l6.44,14.76c0.79,1.82,4.42,4.64,6.32,4.28c13.74-2.56,10.88-36.18,1.25-47.54
				c-15.74-1.85-31.01-1.6-45.98,3.35c-8.8,2.91-14.72,10.37-21.18,16.69c-5.36,5.25-8.21,11.48-3.73,18.53l10.11,15.91
				c11.61-7.29,0.66-21.94,11.5-23.09c7.11-0.76,2.02,13.19,13.5,22.03c1.25,0.98,4.92,1.52,6.06,0.71
				C339.48,800.53,340.99,797.73,341.09,796.47z M78.95,792.41c2.89,1.76,9.31-0.27,10.16-2.52c3.3-8.78,1.06-13.6,4.42-14.46
				c5.49-1.39,6.96,8.87,13.11,12.94c9.36-7-9.4-29.85-17.51-34.48c-9.12-0.99-18.77-2.93-27.77-0.73
				c-8.98,2.19-20.03,27.84-16.88,36.9c1.88,5.4,12.2,5.41,15.76,2.57l4.07-12.07c0.64-1.89,5.1-4.16,7.01-3.67
				C77.79,778.6,74.53,789.72,78.95,792.41z"/>
			<path class="st0" d="M207.96,757.33c-4.29,3.87-6.03,6.61-14.33,5.23c-0.38-0.07-3.43-0.9-1.84-2.12
				c5.52-4.22,6.04-5.37,6.65-6.12c3.48-4.26,16.92-28.41,10.1-30.48c-7-2.14-16,0.15-21.68-8.19c-3.09-4.54-4.92-12.87-0.15-17.37
				c6.82-6.41,16.26-10.28,26.35-11.84c7.33-1.14,23.2,4.34,24.77,12.39c2.03,10.39-9.59,18.54-16.45,23.83
				c-1.85,12.14,5.96,22.64,18.46,24.02c1.07,0.12,1.59,1.36,0.93,2.22c-2.51,3.23-6.19,3.88-10.49,3.76
				c-3.44-0.09-7.49-3.61-10.5-7.18l-2.73-3.22 M200.92,708.56c0.7,1.78,5.63,2.74,7.24,1.76c1.62-0.99,1.46-6.8,0.02-8.01
				C205.9,700.38,199.75,705.54,200.92,708.56z"/>
			<path class="st0" d="M236.77,652.59l11.21,11.66c2.49,2.58,9.57,3.07,12,0.32l9.28-10.51c1.71-1.92,5.32-3.22,8-2.42
				c2.37,0.71,3.78,6.84,1.57,9.69c-5.36,6.89-15.89,14.06-25.48,13.73C242.9,674.7,234.8,662.76,236.77,652.59z"/>
			<path class="st0" d="M153.03,670.8c-5.87-3.33-12.72-7.1-14.82-12.47c-0.41-1.07,2.78-4.29,3.82-3.81l17.25,8.01l22.41-13.2
				C185,657.95,165.89,678.09,153.03,670.8z"/>
		</g>
	</g>
</g>
</svg>
